<svg xmlns="http://www.w3.org/2000/svg" data-name="Layer 1" viewBox="0 0 511.64 112.91"><path d="M511.64 0v112.91H0V0h511.64z" style="fill:#fecc00"/><path d="M165 47.18c-2.23 3-6 8.29-8.25 11.36-1.16 1.57-3.24 4.41 3.68 4.41h36.43l10.79-14.67c6.7-9.09.58-28-23.35-28H90L73.63 42.49h89.09c4.5 0 4.44 1.71 2.28 4.69Zm-26.8 21.24c-6.92 0-4.84-2.84-3.68-4.4 2.28-3.08 6.08-8.29 8.31-11.31s2.26-4.7-2.24-4.7H99.85L67 92.63h80.06c26.44 0 41.16-18 45.7-24.2.02-.01-47.24-.01-54.56-.01Zm52.08 24.21h47l17.81-24.21h-47l-17.81 24.21Zm121.18-72.35-18 24.47h-21l18-24.47h-47L212.12 63H327l31.4-42.67Zm-53.25 72.35h46.94L323 68.43h-47l-17.79 24.2ZM0 78v5.14h65.41L69.19 78Zm76.22-9.55H0v5.14h72.43ZM0 92.63h58.4l3.76-5.11H0Zm442.71-9.52h68.93V78H446.5Zm-7 9.52h75.93v-5.11h-72.17Zm17.8-24.21-3.77 5.15h61.9v-5.15ZM392 63l31.41-42.67H373.7L342.27 63Zm-53.78 5.47s-3.43 4.69-5.1 7c-5.89 8-.68 17.26 18.56 17.26h75.41l17.81-24.2H338.24Z" style="fill:#d50029"/></svg>