<svg xmlns="http://www.w3.org/2000/svg" xml:space="preserve" id="katman_1" x="0" y="0" style="enable-background:new 0 0 600 450" version="1.0" viewBox="0 0 600 450"><style>.st2{fill:#fff}</style><g id="Gruppe_366"><circle id="Ellipse_44" cx="300.1" cy="225.4" r="168" style="fill:#223a8f"/><circle cx="416.2" cy="254.2" r="14.7" style="fill:#ffd103"/><path d="M210.6 221.7v19.2h16c-2.3 3.7-7.6 5.6-11.2 5.6-12 0-18-6.8-18-20.7 0-15.3 7.9-23.1 23.7-23.1 6.2 0 14.4 1.6 23.2 4.3v-22.9c-2.5-1.1-6.4-1.9-11.3-2.8-4.4-.8-8.9-1.2-13.3-1.2-15.6 0-28 4.2-37.2 12.6-9.2 8.4-13.9 19.7-13.9 34 0 13.1 3.6 23.4 10.8 31 7.2 7.7 16.9 11.5 29.2 11.5s23.6-6.4 27.2-14.5l-.1 13h17.8v-46.2h-42.9zM262.2 267.8v-86.2h27.6v63.8h30.1v22.5h-57.7zM328.7 265.7v-23.5c4.7 1.4 9.5 2.6 14.3 3.4 4.6.9 9.3 1.4 14.1 1.4 6.7 0 10.2-1.7 10.2-4.7 0-1.9-1.1-2.9-6-4l-9.6-2.2c-16.4-3.7-24.1-12-24.1-26.1 0-9.2 3.2-16.6 9.6-22 6.4-5.3 15.3-7.9 26.4-7.9 7.7 0 19.5 1.6 26.7 3.4V206c-3.7-.9-8.2-1.9-13.6-2.8-4.2-.7-8.5-1.1-12.7-1.2-5.9 0-9.2 1.7-9.2 4.7 0 1.8 1.6 3 4.8 3.8l11.2 2.6c16.3 3.8 23.9 12.3 23.9 26.5 0 9.1-3.4 16.3-10 21.6-6.6 5.3-15.7 7.9-27.4 7.9-11.2.2-22.3-1.4-28.6-3.4z" class="st2"/></g></svg>