<svg xmlns="http://www.w3.org/2000/svg" style="flex:none;line-height:1" viewBox="0 0 24 24"><path fill="#4285F4" d="M23 12.24c0-.9-.07-1.56-.24-2.25H12.22v4.09h6.19a5.36 5.36 0 0 1-2.3 3.57l-.01.13 3.33 2.53.23.03c2.12-1.92 3.34-4.75 3.34-8.1z"/><path fill="#34A853" d="M12.22 23c3.03 0 5.58-.98 7.44-2.67l-3.54-2.68a6.74 6.74 0 0 1-3.9 1.1 6.75 6.75 0 0 1-6.38-4.57H5.7l-3.47 2.63-.04.13A11.24 11.24 0 0 0 12.22 23z"/><path fill="#FBBC05" d="M5.84 14.18A6.65 6.65 0 0 1 5.46 12c0-.76.14-1.5.36-2.17v-.15L2.3 7l-.12.05A10.83 10.83 0 0 0 1 12c0 1.77.44 3.45 1.2 4.94l3.64-2.77z"/><path fill="#EB4335" d="M12.22 5.25c2.11 0 3.53.9 4.34 1.64l3.17-3.03A10.9 10.9 0 0 0 12.23 1C7.82 1 4.04 3.47 2.2 7.06l3.63 2.77a6.77 6.77 0 0 1 6.4-4.58z"/></svg>