<svg xmlns="http://www.w3.org/2000/svg" xml:space="preserve" style="enable-background:new 0 0 512 512" viewBox="0 0 512 512"><path d="M235.3.2C138.6 7.3-37.4 219.4 30 276.3l16.8 14.3c-4.5 12.2-6.1 25.3-4.7 38.2 3.8 38.1 41 68.9 77 68.9 65.8 151.7 305.5 152 367.5 3.4 2-5.1 10.4-28.1 10.4-48.4s-11.5-28.8-18.9-28.8c-3.8-13.4-6.3-14.9-10.9-21.2 2.8-4.2 17.4-27.4-3.5-49.3-11.9-12.5-35.5-21.1-43.7-23.3-1.7-13 5.3-67-24.5-94.7 23.7-24.5 37.6-51.6 37.5-74.8 0-44.6-53.9-58.2-121.5-30.2l-14.3 6.1-26.3-25.7C261.2 2.4 249.1-.8 235.3.2zm8.7 18.4c2.8.1 5.4.6 7.8 1.2 6.3 1.8 27.3 26.1 27.3 26.1s-38.9 21.6-75 51.7c-48.7 37.5-85.4 91.9-107.4 151-17.3 3.4-32.5 13.2-41.9 26.7-5.6-4.6-15.9-13.7-17.7-17.1-14.8-28.3 16.2-83.2 38-114.2C125.4 72.1 202.5 16.6 244 18.6zm68 69.8.9.8-.3.7c-3.3 2.5-6.2 5.5-8.8 8.8l.2 1.2.5.2c14 .1 33.8 5 46.7 12.2l-.7 2c-79.3-18.2-140.4 21.2-153.4 30.6l-1.2-.3v-1h-.1c19.1-22.1 42.6-41.2 63.7-52l1.1.3v.8c-1.7 3-4.9 9.5-5.9 14.4l.7 1 .7-.1c13.1-8.8 35.9-18.4 55.9-19.6zm67.9 68.6c2.6.4 5.2 1.4 7.5 2.9 11.4 7.6 13 25.9 13.6 39.3.3 7.7 1.3 26.2 1.6 31.5.7 12.2 3.9 13.9 10.4 16 3.6 1.2 7 2.1 12 3.5 15.1 4.2 20.8 10.7 26.5 16.2 2.9 2.9 4.8 6.6 5.4 10.6 1.8 13-6.9 26.8-38.2 41.3-53.3 24.7-106.8 16.5-114.6 15.6-23-3.1-36.1 26.6-22.3 47 25.8 38.1 139.5 22.8 172.6-24.3l-.8-1.2C405.8 388 342.8 399 307 385.1c-5.4-2.1-16.8-7.3-18.2-19 49.7 15.4 81 .8 81 .8s2.3-3.2-.6-2.9c0 0-40.8 6-79.3-8.1 7.1-23 30.8 6.9 109.9-15.7 17.4-5 37.2-12.6 55-26.7 5.3 5.5 9.7 16 11.3 25.5 4.2-.7 16.2-.6 13 20.6-3.7 22.7-13.4 41.1-29.5 58-10.1 11-22.2 20-35.5 26.6-7.4 3.9-15.2 7.2-23.2 9.8-61 19.9-123.5-2-143.7-49-1.6-3.6-3-7.3-4-11.1-8.6-31-1.3-68.2 21.5-91.7 1.4-1.5 2.8-3.2 2.8-5.5l-2.2-5.2c-8-11.5-35.5-31.2-30-69.4 4-27.4 27.9-46.7 50.2-45.5l5.7.3c9.7.6 18.1 1.8 26.1 2.1 13.3.6 25.3-1.3 39.5-13.2 4.8-4 8.6-7.5 15.1-8.5 2.6-.6 5.3-.7 8-.3zm-4.3 46.3c-7.1 1.2-7.4 10-4.8 22.2 1.4 6.8 4 12.7 6.8 16.3 3.5-.4 7.1-.4 10.6 0 1.9-4.4 2.2-11.9.5-20-2.5-12.3-6-19.7-13.1-18.5zm-81.5 33.2c-6 .7-11.9 3-16.9 6.7-3.4 2.5-6.6 5.9-6.2 8 1 4.3 11.4-3.1 25.8-4 8-.5 14.6 2 19.7 4.2 5.1 2.3 8.2 3.7 9.5 2.5 2.2-2.2-4-10.7-13.8-15-5.9-2.4-12.1-3.2-18.1-2.4zm91.8 16.9c-8.7-.1-9.1 18.1-.3 18.2 8.7.2 9.1-18 .3-18.2zm-79.7 3.9c-10.3 1.6-17.1 7.4-15.4 11.5 1 .4 1.3.9 5.9-.9 6.8-2.6 14.2-3.3 21.4-2.2 3.3.4 4.9.6 5.6-.5 1.8-2.6-6.4-9.2-17.5-7.9zm50.2 8.3c-2 .2-3.8 1.2-4.7 3.2-3.9 7.9 12.4 15.8 16.3 8 2.9-5.9-5.5-11.9-11.6-11.2zm-245.6.6c20.7.7 41 15.3 45.8 46.7 5.2 33.8-5.3 66.7-38.9 65.9-26-.7-54.1-24.1-56.9-51.9-3.9-39.3 23.4-61.5 50-60.7zm-1.5 19.7c-7.7-.2-15 3.2-19.2 7.7-9.9 10.9-10 26.8-5.7 27.5 4.9.6 4.7-7.4 8.4-13.2 4.4-6.8 13.5-8.7 20.2-4.3l.1.1c13.2 8.7 1.5 20.2 2.6 32.6 1.6 19 21 18.7 24.6 10.2l-.2-2.7c0 1 .8-1.4-3.8-.4-1.5.4-6.9 1.7-9.7-2.7-5.9-9.1 12.7-23.2 3.4-40.8-5-9.9-13-13.8-20.7-14z"/></svg>