<svg xmlns="http://www.w3.org/2000/svg" style="flex:none;line-height:1" viewBox="0 0 24 24"><path fill="url(#a)" d="M6.9 4h-.03l-.03 2.62h.02c1.72 0 3.05 1.35 5.94 6.24l.18.3.01.02 1.62-2.44-.01-.02A48.76 48.76 0 0 0 13.5 9a28.01 28.01 0 0 0-1.17-1.62C10.4 4.93 8.8 4 6.9 4z"/><path fill="url(#b)" d="M6.87 4c-1.92.01-3.62 1.26-4.85 3.17a4.35 4.35 0 0 0-.01.02l2.25 1.23.02-.02c.71-1.08 1.6-1.77 2.56-1.78h.02L6.9 4h-.03z"/><path fill="url(#c)" d="M2.02 7.17 2 7.19C1.2 8.45.6 9.99.27 11.66v.03l2.53.6v-.03c.28-1.46.8-2.82 1.46-3.84l.01-.02-2.25-1.23z"/><path fill="url(#d)" d="m2.8 12.26-2.53-.6v.03C.09 12.6 0 13.54 0 14.47v.02l2.6.24v-.03a12.6 12.6 0 0 1 .2-2.43z"/><path fill="url(#e)" d="M2.68 15.54a5.46 5.46 0 0 1-.08-.82v-.02L0 14.47v.02a8.89 8.89 0 0 0 .15 1.65l2.53-.58a4.1 4.1 0 0 1 0-.02z"/><path fill="url(#f)" d="M3.27 16.89a2.64 2.64 0 0 1-.59-1.33v-.02l-2.54.59v.02c.2 1 .57 1.85 1.11 2.48l.02.02 2.01-1.74a2.1 2.1 0 0 1-.01-.02z"/><path fill="#0082FB" d="M10.78 9.65C9.25 12 8.33 13.48 8.33 13.48c-2.04 3.2-2.74 3.92-3.88 3.92a1.54 1.54 0 0 1-1.18-.51l-2.02 1.74.02.02C2 19.52 3.06 20 4.36 20c1.96 0 3.37-.93 5.88-5.33l1.77-3.13a41.28 41.28 0 0 0-1.23-1.89z"/><path fill="url(#g)" d="m13.5 5.95-.01.01c-.4.43-.79.91-1.16 1.42.37.48.76 1.02 1.17 1.63.48-.75.93-1.35 1.37-1.8l.01-.03-1.38-1.24z"/><path fill="#0082FB" d="M20.92 5.71A5.2 5.2 0 0 0 17.22 4c-1.43 0-2.63.79-3.72 1.94l-.01.02 1.38 1.24.01-.02c.72-.74 1.41-1.12 2.18-1.12.83 0 1.6.4 2.27 1.08l.02.01 1.58-1.42-.01-.02z"/><path fill="url(#h)" d="M24 14.13c-.06-3.47-1.27-6.57-3.07-8.4l-.01-.02-1.59 1.43.02.01c1.35 1.4 2.27 3.98 2.36 6.97v.03H24v-.03z"/><path fill="url(#i)" d="M24 14.15v-.02h-2.3v.02l.01.42a4.3 4.3 0 0 1-.37 1.95v.03l1.7 1.78.01-.02c.62-.96.95-2.3.95-3.91v-.25z"/><path fill="url(#j)" d="M21.34 16.52v.02c-.22.4-.53.67-.92.79l.77 2.46a3.5 3.5 0 0 0 .44-.18A3.56 3.56 0 0 0 23 18.39l.04-.07.01-.02-1.7-1.78z"/><path fill="url(#k)" d="M19.92 17.4c-.26 0-.5-.05-.72-.15l-.8 2.52a4.46 4.46 0 0 0 2.82.01l-.78-2.46c-.17.05-.34.07-.52.07z"/><path fill="url(#l)" d="m18.32 16.53-.01-.01-1.84 1.91.02.02c.64.68 1.25 1.1 1.94 1.34l.8-2.52c-.3-.13-.58-.36-.9-.74z"/><path fill="url(#m)" d="M18.3 16.52a31.84 31.84 0 0 1-2.3-3.44l-1.39-2.34-.01-.02-1.62 2.44.01.02.99 1.67a21.8 21.8 0 0 0 2.5 3.58v.02l1.84-1.92a2.35 2.35 0 0 1-.01-.02z"/><defs><linearGradient id="a" x1="75.9%" x2="26.31%" y1="89.2%" y2="12.19%"><stop offset=".06%" stop-color="#0867DF"/><stop offset="45.39%" stop-color="#0668E1"/><stop offset="85.91%" stop-color="#0064E0"/></linearGradient><linearGradient id="b" x1="21.67%" x2="97.07%" y1="75.87%" y2="23.98%"><stop offset="13.23%" stop-color="#0064DF"/><stop offset="99.88%" stop-color="#0064E0"/></linearGradient><linearGradient id="c" x1="38.26%" x2="60.9%" y1="89.13%" y2="16.13%"><stop offset="1.47%" stop-color="#0072EC"/><stop offset="68.81%" stop-color="#0064DF"/></linearGradient><linearGradient id="d" x1="47.03%" x2="52.15%" y1="90.19%" y2="15.74%"><stop offset="7.31%" stop-color="#007CF6"/><stop offset="99.43%" stop-color="#0072EC"/></linearGradient><linearGradient id="e" x1="52.16%" x2="47.59%" y1="58.3%" y2="37%"><stop offset="7.31%" stop-color="#007FF9"/><stop offset="100%" stop-color="#007CF6"/></linearGradient><linearGradient id="f" x1="37.69%" x2="61.96%" y1="12.5%" y2="63.62%"><stop offset="7.31%" stop-color="#007FF9"/><stop offset="100%" stop-color="#0082FB"/></linearGradient><linearGradient id="g" x1="34.81%" x2="62.31%" y1="68.86%" y2="23.17%"><stop offset="27.99%" stop-color="#007FF8"/><stop offset="91.41%" stop-color="#0082FB"/></linearGradient><linearGradient id="h" x1="43.76%" x2="57.6%" y1="6.24%" y2="98.51%"><stop offset="0%" stop-color="#0082FB"/><stop offset="99.95%" stop-color="#0081FA"/></linearGradient><linearGradient id="i" x1="60.05%" x2="39.88%" y1="4.66%" y2="69.08%"><stop offset="6.19%" stop-color="#0081FA"/><stop offset="100%" stop-color="#0080F9"/></linearGradient><linearGradient id="j" x1="30.28%" x2="61.08%" y1="59.32%" y2="33.24%"><stop offset="0%" stop-color="#027AF3"/><stop offset="100%" stop-color="#0080F9"/></linearGradient><linearGradient id="k" x1="20.43%" x2="82.11%" y1="50%" y2="50%"><stop offset="0%" stop-color="#0377EF"/><stop offset="99.94%" stop-color="#0279F1"/></linearGradient><linearGradient id="l" x1="40.3%" x2="72.39%" y1="35.3%" y2="57.81%"><stop offset=".19%" stop-color="#0471E9"/><stop offset="100%" stop-color="#0377EF"/></linearGradient><linearGradient id="m" x1="32.25%" x2="68%" y1="19.72%" y2="84.91%"><stop offset="27.65%" stop-color="#0867DF"/><stop offset="100%" stop-color="#0471E9"/></linearGradient></defs></svg>