<svg xmlns="http://www.w3.org/2000/svg" fill-rule="evenodd" stroke-linejoin="round" stroke-miterlimit="1.414" clip-rule="evenodd" viewBox="0 0 560 400"><circle cx="286.875" cy="131.25" r="32.086" fill="#7b83eb"/><path fill-opacity=".098" fill-rule="nonzero" d="M284.586 138.125h-29.054l.144.639.014.055.144.592c4.362 16.534 21.203 26.834 37.909 23.182v-15.304c-.015-5.021-4.142-9.149-9.164-9.164z"/><path fill-opacity=".2" fill-rule="nonzero" d="M277.711 145h-19.828c5.302 11.18 16.618 18.336 28.992 18.336v-9.165c-.015-5.022-4.143-9.149-9.164-9.164z"/><circle cx="359.063" cy="141.563" r="24.063" fill="#5059c9"/><g fill-rule="nonzero"><path fill="#5059c9" d="M379.688 172.5h-54.045c-2.41 0-4.393 1.983-4.393 4.393v55.756c-.31 16.57 11.12 31.225 27.266 34.96 2.325.488 4.693.733 7.068.733 18.872 0 34.404-15.521 34.416-34.393v-51.137c0-5.657-4.655-10.312-10.312-10.312z"/><path fill="#7b83eb" d="M341.875 182.813v65.343c0 30.153-24.812 54.965-54.966 54.965-19.618 0-37.804-10.503-47.609-27.496a49.447 49.447 0 0 1-3.438-6.875 57.483 57.483 0 0 1-2.268-6.875 56.622 56.622 0 0 1-1.719-13.75V182.799c0-5.65 4.649-10.299 10.299-10.299h89.402c5.65 0 10.299 4.649 10.299 10.299z"/><path fill-opacity=".2" d="M277.711 145h-19.828c5.302 11.18 16.618 18.336 28.992 18.336v-9.165c-.015-5.022-4.143-9.149-9.164-9.164z"/><path fill-opacity=".098" d="M293.75 172.5v87.106a9.101 9.101 0 0 1-7.15 8.869 6.66 6.66 0 0 1-1.994.275h-48.744a57.483 57.483 0 0 1-2.268-6.875 56.622 56.622 0 0 1-1.719-13.75V182.799c0-5.65 4.649-10.299 10.299-10.299z"/><path fill-opacity=".2" d="M286.875 172.5v93.981a6.66 6.66 0 0 1-.275 1.994 9.101 9.101 0 0 1-8.869 7.15H239.3a49.33 49.33 0 0 1-3.437-6.875 57.31 57.31 0 0 1-2.269-6.875 56.622 56.622 0 0 1-1.719-13.75V182.799c0-5.65 4.649-10.299 10.299-10.299zm0 0v80.231c-.023 5.008-4.136 9.121-9.144 9.144h-44.137a56.622 56.622 0 0 1-1.719-13.75V182.799c0-5.65 4.649-10.299 10.299-10.299zm-44.688 0h-.013c-5.65 0-10.299 4.649-10.299 10.299v65.326a56.622 56.622 0 0 0 1.719 13.75h37.262c5.008-.023 9.121-4.136 9.144-9.144V172.5z"/><path fill="#4b53bc" d="M179.164 145h91.665c5.027 0 9.164 4.137 9.164 9.164v91.665c0 5.027-4.137 9.164-9.164 9.164h-91.665c-5.027 0-9.164-4.137-9.164-9.164v-91.665c0-5.027 4.137-9.164 9.164-9.164z"/><path fill="#fff" d="M252.363 179.203h-20.55v55.138h-13.502v-55.138h-20.667v-13.544h54.719z"/></g><path fill="none" d="M170 90h220v220H170z"/></svg>