<svg xmlns="http://www.w3.org/2000/svg" fill-rule="evenodd" stroke-linejoin="round" stroke-miterlimit="1.414" clip-rule="evenodd" viewBox="0 0 560 400"><g fill-rule="nonzero"><path fill="#0364b8" d="M366.585 103.756H248.398c-5.295 0-9.652 4.357-9.652 9.652v10.971l66.614 20.625 70.877-20.625v-10.971c0-5.295-4.357-9.652-9.652-9.652z"/><path fill="#0a2767" d="M387.58 209.659a77.852 77.852 0 0 0 2.406-9.659 4.58 4.58 0 0 0-2.289-3.967l-.089-.048-.028-.013-74.507-42.444a10.55 10.55 0 0 0-.996-.571 10.324 10.324 0 0 0-9.164 0c-.342.172-.675.362-.997.571l-74.506 42.444-.028.013-.09.048a4.581 4.581 0 0 0-2.288 3.967 77.852 77.852 0 0 0 2.406 9.659l79.002 57.78z"/><path fill="#28a8ea" d="M334.99 124.379h-48.122l-13.894 20.625 13.894 20.623 48.122 41.247h41.247v-41.247z"/></g><path fill="#0078d4" d="M238.746 124.379h48.122v41.247h-48.122z"/><path fill="#50d9ff" d="M334.99 124.379h41.247v41.247H334.99z"/><path fill="#0364b8" fill-rule="nonzero" d="m334.99 206.874-48.122-41.247h-48.122v41.247l48.122 41.248 74.465 12.154z"/><path fill="none" d="M238.959 124.379h137.278"/><path fill="#0078d4" d="M286.868 165.627h48.122v41.247h-48.122z"/><path fill="#064a8c" d="M238.746 206.874h48.122v41.247h-48.122z"/><path fill="#0078d4" d="M334.99 206.874h41.247v41.247H334.99z"/><g fill-rule="nonzero"><path fill="#0a2767" fill-opacity=".498" d="m308.805 263.369-81.079-59.121 3.396-5.974s73.867 42.072 74.994 42.705a3.631 3.631 0 0 0 2.895-.083c1.051-.591 75.152-42.828 75.152-42.828l3.41 5.974z"/><path fill="#1490df" d="m387.697 203.966-.089.055-.021.014-74.506 42.444a10.301 10.301 0 0 1-10.037.625l25.951 34.792 56.743 12.354v.028a10.305 10.305 0 0 0 4.262-8.346V200a4.58 4.58 0 0 1-2.289 3.966z"/><path fill-opacity=".047" d="M389.986 285.932v-5.073l-68.629-39.103-8.284 4.716a10.297 10.297 0 0 1-10.036.625l25.951 34.793 56.743 12.353v.028a10.31 10.31 0 0 0 4.262-8.346z"/><path fill-opacity=".098" d="m389.643 288.565-75.229-42.856-1.341.763a10.297 10.297 0 0 1-10.036.625l25.951 34.793 56.743 12.353v.028a10.32 10.32 0 0 0 3.918-5.713z"/><path fill="#28a8ea" d="M227.402 204.056v-.069h-.068l-.207-.137a4.482 4.482 0 0 1-2.131-3.85v85.946c0 5.649 4.649 10.298 10.299 10.298h144.38a10.353 10.353 0 0 0 2.543-.344 4.401 4.401 0 0 0 1.238-.412.992.992 0 0 0 .412-.138 7.19 7.19 0 0 0 1.581-.894l.275-.206z"/><path fill-opacity=".098" d="M293.742 259.582V147.3c-.015-5.022-4.142-9.149-9.164-9.164h-45.619v51.256l-11.557 6.586-.027.014-.089.048a4.585 4.585 0 0 0-2.29 3.966v68.767-.028h59.582c5.022-.014 9.149-4.142 9.164-9.163z"/><path fill-opacity=".2" d="M286.868 266.456V154.174c-.015-5.021-4.143-9.148-9.164-9.164h-38.745v44.382l-11.557 6.586-.027.014-.089.048a4.585 4.585 0 0 0-2.29 3.966v75.642-.028h52.708c5.021-.015 9.149-4.142 9.164-9.164zm0-13.749v-98.533c-.015-5.021-4.143-9.148-9.164-9.164h-38.745v44.382l-11.557 6.586-.027.014-.089.048a4.585 4.585 0 0 0-2.29 3.966v61.892-.027h52.708c5.021-.015 9.149-4.142 9.164-9.164zm-6.875 0v-98.533c-.015-5.021-4.142-9.148-9.163-9.164h-31.871v44.382l-11.557 6.586-.027.014-.089.048a4.585 4.585 0 0 0-2.29 3.966v61.892-.027h45.834c5.021-.015 9.148-4.142 9.163-9.164z"/><path fill="#0078d4" d="M179.164 145.004h91.658c5.027 0 9.164 4.136 9.164 9.163v91.659c0 5.027-4.137 9.164-9.164 9.164h-91.658c-5.027 0-9.164-4.137-9.164-9.164v-91.659c0-5.027 4.137-9.163 9.164-9.163z"/><path fill="#fff" d="M196.584 182.593a28.75 28.75 0 0 1 11.288-12.47 34.133 34.133 0 0 1 17.943-4.496 31.736 31.736 0 0 1 16.595 4.262 28.449 28.449 0 0 1 10.985 11.914 38.47 38.47 0 0 1 3.85 17.523 40.569 40.569 0 0 1-3.966 18.335 29.15 29.15 0 0 1-11.309 12.333 32.99 32.99 0 0 1-17.221 4.379 32.512 32.512 0 0 1-16.966-4.311 28.903 28.903 0 0 1-11.123-11.934 37.52 37.52 0 0 1-3.891-17.317 41.621 41.621 0 0 1 3.822-18.218zm12.03 29.272a18.667 18.667 0 0 0 6.353 8.208 16.567 16.567 0 0 0 9.919 2.991 17.407 17.407 0 0 0 10.594-3.08 17.895 17.895 0 0 0 6.167-8.229 31.803 31.803 0 0 0 1.973-11.453c.042-3.94-.586-7.86-1.856-11.59a18.348 18.348 0 0 0-5.954-8.531 16.405 16.405 0 0 0-10.497-3.245 17.132 17.132 0 0 0-10.154 3.011 18.852 18.852 0 0 0-6.49 8.277 32.843 32.843 0 0 0-.048 23.641z"/></g><path fill="none" d="M170 90.006h219.986v219.986H170z"/></svg>