<svg xmlns="http://www.w3.org/2000/svg" fill="currentColor" fill-rule="evenodd" style="flex:none;line-height:1" viewBox="0 0 24 24"><path d="M7.9 1.09c.22.09.42.23.6.41.29.3.54.74.73 1.26.19.53.31 1.1.36 1.68a5.05 5.05 0 0 1 2.05-.63h.05a4.6 4.6 0 0 1 2.78.64c.05-.57.17-1.14.36-1.65.19-.52.44-.95.73-1.26a1.67 1.67 0 0 1 .59-.41c.26-.1.53-.12.8-.04.4.11.74.36 1.01.73.25.34.43.77.56 1.3.23.92.27 2.15.12 3.64l.05.04.02.01c.76.58 1.29 1.4 1.57 2.35.43 1.5.21 3.16-.54 4.1l-.01.01c.41.77.67 1.57.72 2.4v.04a5.6 5.6 0 0 1-.81 3.19v.03c.47 1.16.62 2.32.44 3.49v.04a.65.65 0 0 1-.75.53.65.65 0 0 1-.54-.74 5.27 5.27 0 0 0-.48-3.12.64.64 0 0 1 .04-.62c.6-.93.86-1.84.8-2.73a4.67 4.67 0 0 0-.8-2.27.64.64 0 0 1 .18-.88l.01-.01c.24-.16.47-.57.58-1.12a4.23 4.23 0 0 0-.1-1.97 3.2 3.2 0 0 0-1.1-1.69 3.44 3.44 0 0 0-2.38-.6.65.65 0 0 1-.63-.38 3 3 0 0 0-1.34-1.43 3.29 3.29 0 0 0-1.78-.34c-1.24.1-2.34.8-2.67 1.69a.65.65 0 0 1-.6.42 4.1 4.1 0 0 0-2.5.7c-.53.4-.88.94-1.07 1.6a4.07 4.07 0 0 0-.07 1.88c.11.56.33 1.02.58 1.27h.01c.21.21.26.54.11.8a5.73 5.73 0 0 0-.67 2.43 3.6 3.6 0 0 0 .72 2.54l.01.02a.64.64 0 0 1 .1.69c-.58 1.23-.75 2.25-.56 3.05a.65.65 0 0 1-1.27.3 5.66 5.66 0 0 1 .47-3.5l.01-.04a4.34 4.34 0 0 1-.6-1.32v-.02a5.76 5.76 0 0 1-.18-1.78c.04-.91.27-1.84.62-2.6l.01-.02c-.3-.42-.51-.95-.63-1.54v-.03a5.35 5.35 0 0 1 .09-2.49 4.24 4.24 0 0 1 1.72-2.4 11 11 0 0 1 .11-3.67c.13-.52.31-.95.56-1.29.27-.36.62-.62 1.02-.73.26-.08.54-.06.8.04zm4.12 9.09c.94 0 1.8.31 2.45.85.63.53 1 1.24 1 1.95 0 .88-.4 1.57-1.13 2.02-.62.37-1.45.55-2.4.55-1.01 0-1.87-.26-2.5-.73a2.3 2.3 0 0 1-.96-1.84c0-.71.4-1.42 1.06-1.95a3.98 3.98 0 0 1 2.48-.85zm0 .9a3.07 3.07 0 0 0-1.91.65c-.47.37-.73.83-.73 1.25 0 .42.21.83.61 1.13a3.2 3.2 0 0 0 1.95.55c.8 0 1.47-.15 1.93-.43.46-.28.7-.68.7-1.25 0-.43-.25-.9-.69-1.26a2.9 2.9 0 0 0-1.86-.64zm.66 1.2v.01c.13.15.1.37-.05.49l-.3.23v.45a.38.38 0 0 1-.37.37.38.38 0 0 1-.37-.37V13l-.27-.22a.35.35 0 0 1-.06-.5.35.35 0 0 1 .5-.04l.21.17.22-.17a.35.35 0 0 1 .5.05zm-5.04-1.91c.48 0 .87.39.87.87a.87.87 0 0 1-.87.87.87.87 0 0 1-.86-.87.87.87 0 0 1 .86-.87zm8.7 0c.49 0 .88.39.88.87a.87.87 0 0 1-.87.87.87.87 0 0 1-.87-.87.87.87 0 0 1 .87-.87zM7.45 2.3a.66.66 0 0 0-.29.24 2.4 2.4 0 0 0-.35.84c-.17.69-.22 1.63-.12 2.78.43-.13.9-.2 1.4-.24l.03-.03.15-.24c.12-.77.02-1.7-.26-2.45-.13-.36-.3-.65-.45-.8a.63.63 0 0 0-.1-.1h-.01zm9.17.04a.63.63 0 0 0-.1.1c-.16.15-.32.44-.46.8-.29.8-.38 1.78-.23 2.58l.06.1h.04a5.18 5.18 0 0 1 1.46.22 9 9 0 0 0-.12-2.72 2.38 2.38 0 0 0-.35-.83v-.01a.66.66 0 0 0-.3-.24z"/></svg>