<svg xmlns="http://www.w3.org/2000/svg" aria-labelledby="logoTitle" class="wccom-icon wccom-icon__woo-logo" preserveAspectRatio="xMidYMid" style="max-width:100%;height:auto" viewBox="0 0 95 26"><path fill="#873EFF" d="M12.082 25.27c2.765 0 4.984-1.365 6.656-4.505l3.72-6.963v5.905c0 3.481 2.253 5.563 5.735 5.563 2.73 0 4.744-1.194 6.69-4.505l8.566-14.472C45.326 3.12 43.995.73 39.865.73c-2.218 0-3.652.717-4.949 3.14l-5.904 11.093V5.099c0-2.936-1.4-4.369-3.994-4.369-2.048 0-3.686.887-4.949 3.345l-5.563 10.888V5.2c0-3.14-1.297-4.471-4.437-4.471H3.652C1.23.73 0 1.856 0 3.938 0 6.02 1.297 7.215 3.652 7.215H6.28v12.458c0 3.515 2.355 5.597 5.802 5.597Z"/><path fill="#873EFF" fill-rule="evenodd" d="M55.977.73c-6.997 0-12.355 5.222-12.355 12.287 0 7.066 5.392 12.253 12.355 12.253S68.265 20.048 68.3 13.017C68.299 5.952 62.94.73 55.977.73Zm0 16.997c-2.628 0-4.437-1.98-4.437-4.71s1.81-4.744 4.437-4.744c2.628 0 4.437 2.014 4.437 4.744s-1.775 4.71-4.437 4.71ZM70.037 13.017C70.037 5.952 75.395.73 82.358.73S94.68 5.986 94.68 13.017c0 7.031-5.359 12.253-12.322 12.253-6.963 0-12.321-5.188-12.321-12.253Zm7.918 0c0 2.73 1.741 4.71 4.403 4.71 2.628 0 4.437-1.98 4.437-4.71s-1.809-4.744-4.437-4.744-4.403 2.014-4.403 4.744Z" clip-rule="evenodd"/></svg>