<?xml version="1.0" encoding="UTF-8"?>
<svg id="Layer_1" xmlns="http://www.w3.org/2000/svg" version="1.1" viewBox="0 0 150 150">
  <!-- Generator: Adobe Illustrator 29.1.0, SVG Export Plug-In . SVG Version: 2.1.0 Build 142)  -->
  <defs>
    <style>
      .st0 {
        fill: #f15b4e;
      }
    </style>
  </defs>
  <path id="asana-horizontal-logo__icon" class="st0" d="M113.8,78.9c-16.3,0-29.5,13.2-29.5,29.5s13.2,29.5,29.5,29.5,29.5-13.2,29.5-29.5-13.2-29.5-29.5-29.5ZM37.1,78.9c-16.3-.2-29.7,12.8-29.9,29.1-.2,16.3,12.8,29.7,29.1,29.9.3,0,.5,0,.8,0,16.3-.2,29.3-13.6,29.1-29.9-.2-16-13.1-28.9-29.1-29.1ZM104.9,42.1c0,16.3-13.2,29.5-29.5,29.5s-29.5-13.2-29.5-29.5,13.2-29.5,29.5-29.5,29.5,13.2,29.5,29.5Z"/>
</svg>