<?xml version="1.0" encoding="utf-8"?>
<!-- Generator: Adobe Illustrator 21.0.0, SVG Export Plug-In . SVG Version: 6.00 Build 0)  -->
<svg version="1.1" id="Layer_1" xmlns="http://www.w3.org/2000/svg" xmlns:xlink="http://www.w3.org/1999/xlink" x="0px" y="0px"
	 viewBox="0 0 512 512" style="enable-background:new 0 0 512 512;" xml:space="preserve">
<g>
	<path d="M235.3,0.2C138.6,7.3-37.4,219.4,30,276.3l16.8,14.3c-4.5,12.2-6.1,25.3-4.7,38.2c3.8,38.1,41,68.9,77,68.9
		c65.8,151.7,305.5,152,367.5,3.4c2-5.1,10.4-28.1,10.4-48.4s-11.5-28.8-18.9-28.8c-3.8-13.4-6.3-14.9-10.9-21.2
		c2.8-4.2,17.4-27.4-3.5-49.3c-11.9-12.5-35.5-21.1-43.7-23.3c-1.7-13,5.3-67-24.5-94.7c23.7-24.5,37.6-51.6,37.5-74.8
		C433,16,379.1,2.4,311.5,30.4l-14.3,6.1l-26.3-25.7C261.2,2.4,249.1-0.8,235.3,0.2z M244,18.6c2.8,0.1,5.4,0.6,7.8,1.2
		c6.3,1.8,27.3,26.1,27.3,26.1s-38.9,21.6-75,51.7c-48.7,37.5-85.4,91.9-107.4,151c-17.3,3.4-32.5,13.2-41.9,26.7
		c-5.6-4.6-15.9-13.7-17.7-17.1C22.3,229.9,53.3,175,75.1,144C125.4,72.1,202.5,16.6,244,18.6z M312,88.4l0.9,0.8l-0.3,0.7
		c-3.3,2.5-6.2,5.5-8.8,8.8l0.2,1.2l0.5,0.2c14,0.1,33.8,5,46.7,12.2l-0.7,2c-79.3-18.2-140.4,21.2-153.4,30.6l-1.2-0.3l0-1h-0.1
		c19.1-22.1,42.6-41.2,63.7-52l1.1,0.3v0.8c-1.7,3-4.9,9.5-5.9,14.4l0.7,1l0.7-0.1C269.2,99.2,292,89.6,312,88.4z M379.9,157
		c2.6,0.4,5.2,1.4,7.5,2.9c11.4,7.6,13,25.9,13.6,39.3c0.3,7.7,1.3,26.2,1.6,31.5c0.7,12.2,3.9,13.9,10.4,16c3.6,1.2,7,2.1,12,3.5
		c15.1,4.2,20.8,10.7,26.5,16.2c2.9,2.9,4.8,6.6,5.4,10.6c1.8,13-6.9,26.8-38.2,41.3c-53.3,24.7-106.8,16.5-114.6,15.6
		c-23-3.1-36.1,26.6-22.3,47c25.8,38.1,139.5,22.8,172.6-24.3l-0.8-1.2C405.8,388,342.8,399,307,385.1c-5.4-2.1-16.8-7.3-18.2-19
		c49.7,15.4,81,0.8,81,0.8s2.3-3.2-0.6-2.9c0,0-40.8,6-79.3-8.1c7.1-23,30.8,6.9,109.9-15.7c17.4-5,37.2-12.6,55-26.7
		c5.3,5.5,9.7,16,11.3,25.5c4.2-0.7,16.2-0.6,13,20.6c-3.7,22.7-13.4,41.1-29.5,58c-10.1,11-22.2,20-35.5,26.6
		c-7.4,3.9-15.2,7.2-23.2,9.8c-61,19.9-123.5-2-143.7-49c-1.6-3.6-3-7.3-4-11.1c-8.6-31-1.3-68.2,21.5-91.7c1.4-1.5,2.8-3.2,2.8-5.5
		l-2.2-5.2c-8-11.5-35.5-31.2-30-69.4c4-27.4,27.9-46.7,50.2-45.5l5.7,0.3c9.7,0.6,18.1,1.8,26.1,2.1c13.3,0.6,25.3-1.3,39.5-13.2
		c4.8-4,8.6-7.5,15.1-8.5C374.5,156.7,377.2,156.6,379.9,157z M375.6,203.3c-7.1,1.2-7.4,10-4.8,22.2c1.4,6.8,4,12.7,6.8,16.3
		c3.5-0.4,7.1-0.4,10.6,0c1.9-4.4,2.2-11.9,0.5-20C386.2,209.5,382.7,202.1,375.6,203.3z M294.1,236.5c-6,0.7-11.9,3-16.9,6.7
		c-3.4,2.5-6.6,5.9-6.2,8c1,4.3,11.4-3.1,25.8-4c8-0.5,14.6,2,19.7,4.2c5.1,2.3,8.2,3.7,9.5,2.5c2.2-2.2-4-10.7-13.8-15
		C306.3,236.5,300.1,235.7,294.1,236.5z M385.9,253.4L385.9,253.4c-8.7-0.1-9.1,18.1-0.3,18.2C394.3,271.8,394.7,253.6,385.9,253.4z
		 M306.2,257.3c-10.3,1.6-17.1,7.4-15.4,11.5c1,0.4,1.3,0.9,5.9-0.9c6.8-2.6,14.2-3.3,21.4-2.2c3.3,0.4,4.9,0.6,5.6-0.5
		C325.5,262.6,317.3,256,306.2,257.3z M356.4,265.6c-2,0.2-3.8,1.2-4.7,3.2c-3.9,7.9,12.4,15.8,16.3,8
		C370.9,270.9,362.5,264.9,356.4,265.6z M110.8,266.2c20.7,0.7,41,15.3,45.8,46.7c5.2,33.8-5.3,66.7-38.9,65.9l0,0
		c-26-0.7-54.1-24.1-56.9-51.9C56.9,287.6,84.2,265.4,110.8,266.2z M109.3,285.9c-7.7-0.2-15,3.2-19.2,7.7
		c-9.9,10.9-10,26.8-5.7,27.5c4.9,0.6,4.7-7.4,8.4-13.2c4.4-6.8,13.5-8.7,20.2-4.3l0.1,0.1c13.2,8.7,1.5,20.2,2.6,32.6
		c1.6,19,21,18.7,24.6,10.2l-0.2-2.7c0,1,0.8-1.4-3.8-0.4l0,0c-1.5,0.4-6.9,1.7-9.7-2.7c-5.9-9.1,12.7-23.2,3.4-40.8
		C125,290,117,286.1,109.3,285.9z"/>
</g>
</svg>
